<?xml version="1.0" encoding="utf-8"?>
<!-- Generator: Adobe Illustrator 18.0.0, SVG Export Plug-In . SVG Version: 6.00 Build 0)  -->
<!DOCTYPE svg PUBLIC "-//W3C//DTD SVG 1.1//EN" "http://www.w3.org/Graphics/SVG/1.1/DTD/svg11.dtd">
<svg version="1.1" id="Layer_1" xmlns="http://www.w3.org/2000/svg" xmlns:xlink="http://www.w3.org/1999/xlink" x="0px" y="0px"
	 viewBox="0 0 612 792" enable-background="new 0 0 612 792" xml:space="preserve">
<g>
	<rect x="65" y="187.5" fill="none" width="459" height="459"/>
</g>
<path fill="#0D3759" d="M470.5,348.2c-17.2-3.8-36.3-5.7-57.4-5.7c-40.2,0-76.5,7.6-101.4,23v-38.3c28.7-11.5,63.1-19.1,101.4-19.1
	c19.1,0,38.3,1.9,57.4,5.7L470.5,348.2L470.5,348.2z M355.7,520.3c-24.9,5.7-47.8,15.3-65,24.9V285.1
	c30.6-19.1,86.1-34.4,124.3-34.4c26.8,0,53.5,3.8,80.3,11.5V396c15.3,1.9,30.6,5.7,45.9,11.5V241.1c-13.4-9.6-28.7-17.2-45.9-23
	c-24.9-7.7-53.5-11.5-80.3-11.5c-44,0-91.8,9.6-124.3,34.4c-32.5-24.9-80.3-34.4-124.3-34.4s-93.7,9.6-126.2,34.4v332.8
	c0,5.7,5.7,11.5,11.5,11.5c1.9,0,3.8-1.9,5.7-1.9c30.6-15.3,74.6-24.9,107.1-24.9c44,0,91.8,9.6,124.3,34.4
	c17.2-11.5,44-21,70.8-26.8c-3.8-13.4-5.7-26.8-5.7-40.2C353.8,524.1,355.7,522.2,355.7,520.3z M311.7,447.6v38.3
	c15.3-9.6,34.4-15.3,55.5-19.1c7.6-13.4,17.2-26.8,28.7-38.3C365.3,432.3,336.6,438.1,311.7,447.6z M311.7,388.4v38.3
	c24.9-15.3,61.2-23,101.4-23c7.6,0,15.3,0,23,1.9c11.5-3.8,21-7.6,34.4-7.6v-21c-17.2-3.8-36.3-5.7-57.4-5.7
	C376.8,369.2,340.4,375,311.7,388.4z M495.3,472.5h-21v42.1h-42.1v21h42.1v42.1h21v-42.1h42.1v-21h-42.1V472.5z M589,526
	c0,57.4-45.9,103.3-103.3,103.3S382.5,583.4,382.5,526s45.9-103.3,103.3-103.3C543.1,420.9,589,468.7,589,526z M568,526
	c0-45.9-38.3-82.2-82.2-82.2s-82.2,38.3-82.2,82.2s38.3,82.2,82.2,82.2S568,572,568,526z"/>
</svg>
