<?xml version="1.0" encoding="utf-8"?>
<!-- Generator: Adobe Illustrator 18.0.0, SVG Export Plug-In . SVG Version: 6.00 Build 0)  -->
<!DOCTYPE svg PUBLIC "-//W3C//DTD SVG 1.1//EN" "http://www.w3.org/Graphics/SVG/1.1/DTD/svg11.dtd">
<svg version="1.1"
	 id="Layer_1" xmlns:rdf="http://www.w3.org/1999/02/22-rdf-syntax-ns#" xmlns:dc="http://purl.org/dc/elements/1.1/" xmlns:svg="http://www.w3.org/2000/svg" xmlns:cc="http://creativecommons.org/ns#"
	 xmlns="http://www.w3.org/2000/svg" xmlns:xlink="http://www.w3.org/1999/xlink" x="0px" y="0px" viewBox="0 0 100 100"
	 enable-background="new 0 0 100 100" xml:space="preserve">
<g id="g3003">
	<path id="path3" fill="#FFFFFF" d="M50.6,71.3l13.6-13.6c1.2-1.2,1.2-3,0-4.2c-1.2-1.2-3-1.2-4.2,0L46.5,67.1L32.9,53.5L46.5,40
		c1.2-1.2,1.2-3,0-4.2c-1.2-1.2-3-1.2-4.2,0L28.7,49.4L24,44.7L15.7,53c-7.6,7.6-8.5,19.3-2.8,27.9L0,93.7l6.3,6.3l12.8-12.8
		c8.6,5.7,20.3,4.8,27.9-2.8l8.4-8.4C55.3,76,50.6,71.3,50.6,71.3z"/>
	<path id="path3-7" fill="#FFFFFF" d="M76,55.3l8.4-8.4c7.6-7.6,8.5-19.3,2.8-27.9L100,6.3L93.7,0L80.9,12.8
		C72.3,7.1,60.6,8.1,53,15.7L44.7,24C75.3,54.7,44.9,24.3,76,55.3z"/>
</g>
</svg>
